<svg xmlns="http://www.w3.org/2000/svg" viewBox="0 0 478 431.6"><style>.st0{fill:#b65474}.st1{fill:#2c2c2c}</style><path id="XMLID_4_" d="M102 99.8L239 0 0 174v216.7l239 40.8V271.1l-137 22.4V99.8z" class="st0"/><path id="XMLID_3_" d="M239 102.5V0L102 99.8v193.7l68.5-11.2v-66.5l68.5-22.3v-55.1l-68.5 30.1v-30.7l68.5-35.3z" class="st1"/><path id="XMLID_2_" d="M376 99.8L239 .1l239 174v216.7l-239 40.8V271.2l137 22.4V99.8z" class="st1"/><path id="XMLID_1_" d="M239 102.6V.1l137 99.7v193.8l-68.5-11.2v-66.6L239 193.5v-55l68.5 30.1v-30.8L239 102.6z" class="st0"/></svg>